<?xml version="1.0" standalone="no"?>
<!DOCTYPE svg PUBLIC "-//W3C//DTD SVG 20010904//EN"
 "http://www.w3.org/TR/2001/REC-SVG-20010904/DTD/svg10.dtd">
<svg version="1.0" xmlns="http://www.w3.org/2000/svg"
 width="152.000000pt" height="164.000000pt" viewBox="0 0 152.000000 164.000000"
 preserveAspectRatio="xMidYMid meet">

<g transform="translate(0.000000,164.000000) scale(0.100000,-0.100000)"
fill="#000000" stroke="none">
<path d="M403 1359 c-70 -27 -146 -97 -180 -167 -24 -49 -28 -69 -28 -142 1
-138 12 -155 283 -425 128 -126 243 -234 256 -239 13 -5 34 -6 47 -2 13 3 128
109 256 234 195 191 236 236 258 285 49 106 43 224 -16 317 -38 61 -73 93
-139 127 -49 25 -65 28 -145 28 -93 -1 -134 -14 -206 -68 l-27 -19 -35 26
c-84 64 -223 84 -324 45z m342 -210 c6 -9 58 -280 72 -372 3 -21 9 -40 13 -42
4 -3 23 50 42 118 21 72 40 122 47 122 7 0 21 -22 30 -50 16 -46 20 -50 57
-57 21 -4 77 -7 123 -7 46 -1 82 -3 80 -5 -2 -2 -61 -7 -132 -11 l-127 -7 -11
32 c-6 17 -13 29 -16 26 -3 -2 -22 -67 -42 -143 -27 -96 -43 -139 -54 -141
-19 -4 -19 -6 -62 228 -20 107 -38 197 -40 198 -2 2 -9 -16 -15 -39 -35 -135
-58 -203 -68 -207 -6 -2 -26 20 -43 49 l-33 52 -21 -28 -22 -27 -109 8 -109 8
100 8 c98 8 100 9 128 43 16 19 33 35 37 35 5 0 19 -18 31 -40 13 -22 26 -37
30 -33 3 5 24 72 44 151 36 133 51 162 70 131z"/>
</g>
</svg>
